<?xml version="1.0" encoding="utf-8"?>
<!-- Generator: Adobe Illustrator 17.0.0, SVG Export Plug-In . SVG Version: 6.00 Build 0)  -->
<!DOCTYPE svg PUBLIC "-//W3C//DTD SVG 1.1//EN" "http://www.w3.org/Graphics/SVG/1.1/DTD/svg11.dtd">
<svg version="1.1" id="Layer_1" xmlns="http://www.w3.org/2000/svg" xmlns:xlink="http://www.w3.org/1999/xlink" x="0px" y="0px"
	 width="100%" height="100%" viewBox="0 0 376.423 483" style="enable-background:new 0 0 376.423 483;" xml:space="preserve"
	>
<style type="text/css">
	.st0{fill:#020202;stroke:#070101;stroke-width:0.25;stroke-miterlimit:10;}
	.st1{fill:#E23614;}
	.st2{fill:#E2E2B7;}
	.st3{clip-path:url(#SVGID_2_);}
	.st4{clip-path:url(#SVGID_4_);fill:#E2E2B7;}
	.st5{fill:#F9F9F9;stroke:#070101;stroke-width:0.25;stroke-miterlimit:10;}
	.st6{fill:#F9F9F9;stroke:#070101;stroke-width:0.5;stroke-miterlimit:10;}
	.st7{clip-path:url(#SVGID_6_);fill:#FFFFFF;stroke:#020000;stroke-width:0.25;stroke-miterlimit:10;}
	.st8{fill:#FFFFFF;}
	.st9{fill:none;stroke:#FCFCFC;stroke-width:0.5;stroke-miterlimit:10;}
	.st10{clip-path:url(#SVGID_8_);}
	.st11{clip-path:url(#SVGID_10_);fill:#E2E2B7;}
	.st12{clip-path:url(#SVGID_12_);fill:#FFFFFF;stroke:#020000;stroke-width:0.25;stroke-miterlimit:10;}
</style>
<path class="st1" d="M249.335,151.853c-9.456-8.679-25.809,6.835-25.809,6.835s31.857,62.563,25.051,84.678
	c-6.048,19.665-71.933,39.665-68.703,114.781l1.663,38.533c0,0,31.293,17.273,71.22,21.231
	c-15.109,14.601-40.611,28.027-76.223,8.795c-38.448-20.77,0.53-74.474-5.679-130.687c-6.209-56.215-39.115-126.139-124.874-117.735
	c0,0,26.717,46.69-3.031,129.19c-29.752,82.501,10.899,136.402,65.961,153.6c55.064,17.189,119.931,6.695,144.89-10.889
	c12.054-8.493,22.534-20.997,30.482-32.313c21.14-2.331,42.99-9.782,62.83-26.041C347.112,391.829,348.645,242.963,249.335,151.853z
	 M266.098,392.519h-8.464v-44.229l-19.645,23.695h-6.651l-19.645-23.695v32.215h-8.464v-41.347h8.406c3.2,0,4.593,1.631,5.865,3.205
	l17.162,21.093l17.172-21.093c1.267-1.574,2.66-3.205,5.865-3.205h8.401V392.519z M325.551,347.625h-27.503
	c-9.852,0-13.539,1.265-13.539,9.789v1.149h39.537v7.68h-39.537v26.277h-8.645v-35.106c0-14.147,7.371-18.255,22.184-18.255h27.503
	V347.625z"/>
<g>
	<path class="st2" d="M134.233,77.083c0,0,0.074,55.424,43.856,70.141c0,0-3.293,60.36,28.055,69.207L239.84,97.076L134.233,77.083z
		"/>
	<path class="st2" d="M342.635,135.922c0,0-29.058,47.197-74.063,36.853c0,0-38.096,50.453-60.924,43.893L242.164,97.73
		L342.635,135.922z"/>
</g>
<path class="st1" d="M353.141,41.574c-49.071,2.625-62.748,28.691-66.268,39.071c-11.097-7.473-23.414-13.834-36.6-17.558
	c-18.319-5.173-37.578-5.06-55.025-2.667c0.795-8.575-0.822-30.341-33.072-47.45c0,0-25.556,29.465-9.644,57.991
	c-11.212,3.952-18.147,7.345-18.147,7.345s91.339,7.713,75.519,63.753c-7.448,26.362-18.282,70.289-3.719,74.394
	c14.551,4.113,26.584-38.46,34.288-65.761c16.851-59.682,103.556-13.981,103.169-13.305c0,0-5.281-7.882-14.578-18.615
	C368.28,94.234,353.141,41.574,353.141,41.574z"/>
<g>
	<defs>
		<path id="SVGID_7_" d="M187.646,213.574c-3.083,10.904,4.903,13.225,14.781,16.013c9.871,2.792,17.903,4.988,20.973-5.915
			c3.08-10.904-2.428-21.996-12.299-24.786c-1.53-0.432-3.087-0.642-4.619-0.642C188.954,198.244,186.667,217.059,187.646,213.574"
			/>
	</defs>
	<clipPath id="SVGID_2_">
		<use xlink:href="#SVGID_7_"  style="overflow:visible;"/>
	</clipPath>
	<path class="st3" d="M183.618,91.836c0,0,33.84,13.699,23.95,49.391c-4.745,17.104-8.713,41.325-8.713,57.823
		c0,9.784,2.298,15.977,7.431,17.596c4.738,1.494,9.231-1.59,14.42-10.79c7.969-14.126,17.628-36.865,22.614-54.536
		c10.064-35.639,51.585-28.853,51.201-28.172c0,0,4.974-46.748-44.021-60.579C201.51,48.737,183.618,91.836,183.618,91.836"/>
</g>
<g>
	<path d="M279.86,150.026c-0.685,2.416-3.193,3.818-5.604,3.135c-2.413-0.681-3.813-3.191-3.137-5.599
		c0.685-2.413,3.188-3.818,5.602-3.137C279.136,145.105,280.531,147.615,279.86,150.026"/>
	<path d="M185.808,125.378c-0.678,2.418-3.182,3.818-5.597,3.132c-2.411-0.676-3.816-3.181-3.133-5.594
		c0.682-2.416,3.186-3.82,5.601-3.135C185.095,120.462,186.495,122.969,185.808,125.378"/>
</g>
<g>
	<defs>
		<path id="SVGID_9_" d="M45.624,177.412c0,0,26.802,46.828-3.036,129.581c-29.846,82.737,10.928,136.803,66.153,154.049
			c55.229,17.237,120.286,6.719,145.319-10.923c27.368-19.269,46.647-59.163,46.647-59.163l-31.288,5.111
			c0,0-31.44,63.681-92.86,30.501c-38.557-20.828,0.537-74.686-5.685-131.073c-5.877-53.256-35.663-118.768-111.428-118.778
			C54.994,176.716,50.398,176.943,45.624,177.412"/>
	</defs>
	<clipPath id="SVGID_4_">
		<use xlink:href="#SVGID_9_"  style="overflow:visible;"/>
	</clipPath>
	<path class="st4" d="M46.976,289.308l22.759-40.587l13.653,32.999l11.382-26.174l17.063,30.725l10.239-39.822l22.754,28.445
		l5.691-14.797l20.105,16.698c0,0,15.166-158.919-130.47-117.964C-105.492,199.796,27.633,283.622,46.976,289.308"/>
</g>
<path class="st2" d="M301.358,97.599c0,0,4.803-20.232,33.445-26.678c0,0,4.395,25.02-15.315,40.196L301.358,97.599z"/>
<path class="st2" d="M177.728,63.973c0,0,3.157-15.405-14.442-28.94c0,0-10.986,15.767-2.293,32.439L177.728,63.973z"/>
</svg>
